<svg xmlns="http://www.w3.org/2000/svg" width="1280" height="720" viewBox="0 0 1280 720">
  <defs>
    <linearGradient id="hallwayGradient" x1="50%" y1="0%" x2="50%" y2="100%">
      <stop offset="0%" stop-color="#0a0a0a" />
      <stop offset="100%" stop-color="#000000" />
    </linearGradient>
    <filter id="noise">
      <feTurbulence type="fractalNoise" baseFrequency="0.7" numOctaves="3" stitchTiles="stitch" result="noise"/>
      <feColorMatrix type="matrix" values="1 0 0 0 0 0 1 0 0 0 0 0 1 0 0 0 0 0 0.3 0" in="noise" result="coloredNoise"/>
    </filter>
    <filter id="blur">
      <feGaussianBlur stdDeviation="1.5" />
    </filter>
  </defs>
  
  <!-- Background -->
  <rect width="1280" height="720" fill="url(#hallwayGradient)" />
  
  <!-- Noise overlay -->
  <rect width="1280" height="720" filter="url(#noise)" opacity="0.2" />
  
  <!-- Hallway perspective -->
  <polygon points="440,0 840,0 1000,720 280,720" fill="#050505" />
  
  <!-- Floor -->
  <polygon points="440,720 840,720 840,600 440,600" fill="#0a0a0a" />
  
  <!-- Left wall -->
  <polygon points="0,0 440,0 280,720 0,720" fill="#080808" />
  
  <!-- Right wall -->
  <polygon points="840,0 1280,0 1280,720 1000,720" fill="#080808" />
  
  <!-- Ceiling -->
  <polygon points="440,0 840,0 840,100 440,100" fill="#030303" />
  
  <!-- Door frames -->
  <rect x="500" y="200" width="80" height="200" fill="#0c0c0c" />
  <rect x="700" y="200" width="80" height="200" fill="#0c0c0c" />
  <rect x="450" y="400" width="60" height="150" fill="#0c0c0c" />
  <rect x="770" y="400" width="60" height="150" fill="#0c0c0c" />
  
  <!-- Light fixtures -->
  <rect x="590" y="50" width="100" height="10" fill="#111111" />
  <ellipse cx="640" cy="55" rx="30" ry="5" fill="#333333" opacity="0.7" filter="url(#blur)" />
  
  <!-- Light glow -->
  <ellipse cx="640" cy="55" rx="100" ry="30" fill="#cc6666" opacity="0.05" filter="url(#blur)" />
  
  <!-- Distant red light -->
  <circle cx="640" cy="360" r="5" fill="#cc0000" opacity="0.8" filter="url(#blur)" />
  <circle cx="640" cy="360" r="20" fill="#cc0000" opacity="0.1" filter="url(#blur)" />
  
  <!-- Subtle details -->
  <line x1="440" y1="200" x2="440" y2="720" stroke="#111111" stroke-width="1" />
  <line x1="840" y1="200" x2="840" y2="720" stroke="#111111" stroke-width="1" />
  <line x1="440" y1="200" x2="840" y2="200" stroke="#111111" stroke-width="1" />
  
  <!-- Vignette effect -->
  <ellipse cx="640" cy="360" rx="640" ry="360" fill="black" opacity="0.4" style="mix-blend-mode: multiply;" />
</svg>
