<svg xmlns="http://www.w3.org/2000/svg" width="1920" height="1080"><defs><linearGradient id="a" x1="0%" x2="0%" y1="0%" y2="100%"><stop offset="0%" stop-color="#0a0a1a"/><stop offset="100%" stop-color="#1a1a2a"/></linearGradient></defs><path fill="url(#a)" d="M0 0h1920v1080H0z"/><g fill="#fff" opacity=".6"><circle cx="100" cy="100" r="1"/><circle cx="300" cy="200" r="1"/><circle cx="500" cy="150" r="1"/><circle cx="700" cy="250" r="1"/><circle cx="900" cy="100" r="1"/><circle cx="1100" cy="200" r="1"/><circle cx="1300" cy="150" r="1"/><circle cx="1500" cy="250" r="1"/><circle cx="1700" cy="100" r="1"/><circle cx="1900" cy="200" r="1"/><circle cx="200" cy="300" r="1"/><circle cx="400" cy="350" r="1"/><circle cx="600" cy="300" r="1"/><circle cx="800" cy="350" r="1"/><circle cx="1000" cy="300" r="1"/><circle cx="1200" cy="350" r="1"/><circle cx="1400" cy="300" r="1"/><circle cx="1600" cy="350" r="1"/><circle cx="1800" cy="300" r="1"/></g><path fill="#0a0a0a" d="M100 600h150v480H100zm200-100h100v580H300zm150 150h200v430H450zm250-250h120v680H700zm170 150h180v530H870zm230-100h90v630h-90zm140 150h140v480h-140zm190-100h110v580h-110zm160 150h170v430h-170zm220-100h100v530h-100z"/><path fill="#fc4" d="M120 630h20v30h-20zm40 0h20v30h-20zm40 0h20v30h-20zm-80 50h20v30h-20zm40 0h20v30h-20zm40 0h20v30h-20zm-80 50h20v30h-20zm40 0h20v30h-20zm40 0h20v30h-20zm-80 50h20v30h-20zm40 0h20v30h-20zm40 0h20v30h-20zm-80 50h20v30h-20zm40 0h20v30h-20zm40 0h20v30h-20zm-80 50h20v30h-20zm40 0h20v30h-20zm40 0h20v30h-20zm-80 50h20v30h-20zm40 0h20v30h-20zm40 0h20v30h-20zm-80 50h20v30h-20zm40 0h20v30h-20zm40 0h20v30h-20z" opacity=".7"/><g fill="none" stroke="#333" stroke-width="2"><path d="M50 700v380m200-380v380m200-380v380m200-380v380m200-380v380m200-380v380m200-380v380m200-380v380m200-380v380m200-380v380M0 720c50-10 100-20 150-10s100 20 150 10 100-20 150-10 100 20 150 10 100-20 150-10 100 20 150 10 100-20 150-10 100 20 150 10 100-20 150-10 100 20 150 10 100-20 150-10 100 20 150 10 100-20 150-10"/><path d="M0 740c50-10 100-20 150-10s100 20 150 10 100-20 150-10 100 20 150 10 100-20 150-10 100 20 150 10 100-20 150-10 100 20 150 10 100-20 150-10 100 20 150 10 100-20 150-10 100 20 150 10 100-20 150-10M0 760c50-10 100-20 150-10s100 20 150 10 100-20 150-10 100 20 150 10 100-20 150-10 100 20 150 10 100-20 150-10 100 20 150 10 100-20 150-10 100 20 150 10 100-20 150-10 100 20 150 10 100-20 150-10"/></g><path fill="#c66" d="M0 600h1920v480H0z" opacity=".05"/></svg>
