<svg xmlns="http://www.w3.org/2000/svg" width="1920" height="1080" viewBox="0 0 1920 1080">
  <defs>
    <linearGradient id="skyGradient" x1="0%" y1="0%" x2="0%" y2="100%">
      <stop offset="0%" stop-color="#0a0a1a" />
      <stop offset="100%" stop-color="#1a1a2a" />
    </linearGradient>
    <filter id="glow">
      <feGaussianBlur stdDeviation="2" result="blur" />
      <feComposite in="SourceGraphic" in2="blur" operator="over" />
    </filter>
  </defs>
  
  <!-- Night sky background -->
  <rect width="1920" height="1080" fill="url(#skyGradient)" />
  
  <!-- Stars -->
  <g opacity="0.6">
    <circle cx="100" cy="100" r="1" fill="white" />
    <circle cx="300" cy="200" r="1" fill="white" />
    <circle cx="500" cy="150" r="1" fill="white" />
    <circle cx="700" cy="250" r="1" fill="white" />
    <circle cx="900" cy="100" r="1" fill="white" />
    <circle cx="1100" cy="200" r="1" fill="white" />
    <circle cx="1300" cy="150" r="1" fill="white" />
    <circle cx="1500" cy="250" r="1" fill="white" />
    <circle cx="1700" cy="100" r="1" fill="white" />
    <circle cx="1900" cy="200" r="1" fill="white" />
    <circle cx="200" cy="300" r="1" fill="white" />
    <circle cx="400" cy="350" r="1" fill="white" />
    <circle cx="600" cy="300" r="1" fill="white" />
    <circle cx="800" cy="350" r="1" fill="white" />
    <circle cx="1000" cy="300" r="1" fill="white" />
    <circle cx="1200" cy="350" r="1" fill="white" />
    <circle cx="1400" cy="300" r="1" fill="white" />
    <circle cx="1600" cy="350" r="1" fill="white" />
    <circle cx="1800" cy="300" r="1" fill="white" />
  </g>
  
  <!-- City skyline -->
  <g fill="#0a0a0a">
    <!-- Buildings -->
    <rect x="100" y="600" width="150" height="480" />
    <rect x="300" y="500" width="100" height="580" />
    <rect x="450" y="650" width="200" height="430" />
    <rect x="700" y="400" width="120" height="680" />
    <rect x="870" y="550" width="180" height="530" />
    <rect x="1100" y="450" width="90" height="630" />
    <rect x="1240" y="600" width="140" height="480" />
    <rect x="1430" y="500" width="110" height="580" />
    <rect x="1590" y="650" width="170" height="430" />
    <rect x="1810" y="550" width="100" height="530" />
  </g>
  
  <!-- Building windows -->
  <g fill="#ffcc44" opacity="0.7">
    <!-- Building 1 -->
    <rect x="120" y="630" width="20" height="30" />
    <rect x="160" y="630" width="20" height="30" />
    <rect x="200" y="630" width="20" height="30" />
    <rect x="120" y="680" width="20" height="30" />
    <rect x="160" y="680" width="20" height="30" />
    <rect x="200" y="680" width="20" height="30" />
    <rect x="120" y="730" width="20" height="30" />
    <rect x="160" y="730" width="20" height="30" />
    <rect x="200" y="730" width="20" height="30" />
    <rect x="120" y="780" width="20" height="30" />
    <rect x="160" y="780" width="20" height="30" />
    <rect x="200" y="780" width="20" height="30" />
    <rect x="120" y="830" width="20" height="30" />
    <rect x="160" y="830" width="20" height="30" />
    <rect x="200" y="830" width="20" height="30" />
    <rect x="120" y="880" width="20" height="30" />
    <rect x="160" y="880" width="20" height="30" />
    <rect x="200" y="880" width="20" height="30" />
    <rect x="120" y="930" width="20" height="30" />
    <rect x="160" y="930" width="20" height="30" />
    <rect x="200" y="930" width="20" height="30" />
    <rect x="120" y="980" width="20" height="30" />
    <rect x="160" y="980" width="20" height="30" />
    <rect x="200" y="980" width="20" height="30" />
  </g>
  
  <!-- Power lines -->
  <g stroke="#333333" stroke-width="2" fill="none">
    <!-- Poles -->
    <line x1="50" y1="700" x2="50" y2="1080" />
    <line x1="250" y1="700" x2="250" y2="1080" />
    <line x1="450" y1="700" x2="450" y2="1080" />
    <line x1="650" y1="700" x2="650" y2="1080" />
    <line x1="850" y1="700" x2="850" y2="1080" />
    <line x1="1050" y1="700" x2="1050" y2="1080" />
    <line x1="1250" y1="700" x2="1250" y2="1080" />
    <line x1="1450" y1="700" x2="1450" y2="1080" />
    <line x1="1650" y1="700" x2="1650" y2="1080" />
    <line x1="1850" y1="700" x2="1850" y2="1080" />
    
    <!-- Horizontal lines -->
    <path d="M0,720 C50,710 100,700 150,710 C200,720 250,730 300,720 C350,710 400,700 450,710 C500,720 550,730 600,720 C650,710 700,700 750,710 C800,720 850,730 900,720 C950,710 1000,700 1050,710 C1100,720 1150,730 1200,720 C1250,710 1300,700 1350,710 C1400,720 1450,730 1500,720 C1550,710 1600,700 1650,710 C1700,720 1750,730 1800,720 C1850,710 1900,700 1950,710" />
    
    <path d="M0,740 C50,730 100,720 150,730 C200,740 250,750 300,740 C350,730 400,720 450,730 C500,740 550,750 600,740 C650,730 700,720 750,730 C800,740 850,750 900,740 C950,730 1000,720 1050,730 C1100,740 1150,750 1200,740 C1250,730 1300,720 1350,730 C1400,740 1450,750 1500,740 C1550,730 1600,720 1650,730 C1700,740 1750,750 1800,740 C1850,730 1900,720 1950,730" />
    
    <path d="M0,760 C50,750 100,740 150,750 C200,760 250,770 300,760 C350,750 400,740 450,750 C500,760 550,770 600,760 C650,750 700,740 750,750 C800,760 850,770 900,760 C950,750 1000,740 1050,750 C1100,760 1150,770 1200,760 C1250,750 1300,740 1350,750 C1400,760 1450,770 1500,760 C1550,750 1600,740 1650,750 C1700,760 1750,770 1800,760 C1850,750 1900,740 1950,750" />
  </g>
  
  <!-- City glow -->
  <rect x="0" y="600" width="1920" height="480" fill="#cc6666" opacity="0.05" />
</svg>
