<svg xmlns="http://www.w3.org/2000/svg" width="1280" height="720"><defs><filter id="b"><feTurbulence baseFrequency=".7" numOctaves="3" result="noise" stitchTiles="stitch" type="fractalNoise"/><feColorMatrix in="noise" result="coloredNoise" values="1 0 0 0 0 0 1 0 0 0 0 0 1 0 0 0 0 0 0.3 0"/></filter><filter id="c"><feGaussianBlur stdDeviation="1.5"/></filter><linearGradient id="a" x1="50%" x2="50%" y1="0%" y2="100%"><stop offset="0%" stop-color="#0a0a0a"/><stop offset="100%"/></linearGradient></defs><path fill="url(#a)" d="M0 0h1280v720H0z"/><path d="M0 0h1280v720H0z" filter="url(#b)" opacity=".2"/><path fill="#050505" d="M440 0h400l160 720H280z"/><path fill="#0a0a0a" d="M440 720h400V600H440z"/><path fill="#080808" d="M0 0h440L280 720H0zm840 0h440v720h-280z"/><path fill="#030303" d="M440 0h400v100H440z"/><path fill="#0c0c0c" d="M500 200h80v200h-80zm200 0h80v200h-80zM450 400h60v150h-60zm320 0h60v150h-60z"/><path fill="#111" d="M590 50h100v10H590z"/><ellipse cx="640" cy="55" fill="#333" filter="url(#c)" opacity=".7" rx="30" ry="5"/><ellipse cx="640" cy="55" fill="#c66" filter="url(#c)" opacity=".05" rx="100" ry="30"/><circle cx="640" cy="360" r="5" fill="#c00" filter="url(#c)" opacity=".8"/><circle cx="640" cy="360" r="20" fill="#c00" filter="url(#c)" opacity=".1"/><path stroke="#111" d="M440 200v520m400-520v520M440 200h400"/><ellipse cx="640" cy="360" opacity=".4" rx="640" ry="360" style="mix-blend-mode:multiply"/></svg>
