<svg xmlns="http://www.w3.org/2000/svg" width="200" height="200"><defs><filter id="a"><feTurbulence baseFrequency=".08" numOctaves="3" result="noise" type="fractalNoise"/><feDisplacementMap in="SourceGraphic" in2="noise" scale="10" xChannelSelector="R" yChannelSelector="G"/></filter><filter id="c"><feGaussianBlur result="blur" stdDeviation="3"/><feComposite in="SourceGraphic" in2="blur"/></filter><linearGradient id="b" x1="0%" x2="100%" y1="0%" y2="100%"><stop offset="0%" stop-color="#460066"/><stop offset="50%" stop-color="#304"/><stop offset="100%" stop-color="#203"/></linearGradient></defs><path fill="#0f0f0f" d="M0 0h200v200H0z"/><path fill="#131313" d="M0 0h200v200H0z" filter="url(#a)" opacity=".4"/><circle cx="100" cy="100" r="60" fill="url(#b)" opacity=".8"/><path fill="#0f0" d="M60 70h80v15H60z" filter="url(#c)" opacity=".3"/><path fill="red" d="M70 100h60v10H70z" opacity=".2"/><path fill="#0f0" d="M80 130h40v8H80z" filter="url(#c)" opacity=".4"/><path stroke="#0f0" stroke-width="2" d="M20 100h60m40 0h60m-80-80v60m0 40v60" opacity=".6"/><circle cx="100" cy="100" r="20"/><circle cx="100" cy="100" r="15" fill="#460066" filter="url(#a)"/><circle cx="100" cy="100" r="10" fill="#0f0" filter="url(#c)" opacity=".7"/><path fill="#0f0" d="M100 15.147 184.853 100l-1.414 1.414-84.853-84.853z" opacity=".2"/><path fill="#0f0" d="M184.853 100 100 184.853l-1.414-1.414 84.853-84.853z" opacity=".2"/><path fill="#0f0" d="M30 30h5v5h-5zm135 135h5v5h-5zm-135 0h5v5h-5zM165 30h5v5h-5z" opacity=".5"/></svg>
